<svg xmlns="http://www.w3.org/2000/svg" viewBox="0 0 50 50"><path d="M 25 2 C 15.058594 2 7 4.6875 7 8 C 7 8 7 16.082031 7 25 C 7 30.082031 12.417969 44.082031 25 47 C 37.582031 44.082031 43 30.082031 43 25 C 43 16.082031 43 8 43 8 C 43 4.6875 34.941406 2 25 2 Z M 17 11 C 20.4375 11 22.195313 14.074219 22.5625 14.4375 C 23.148438 15.023438 23.148438 15.976563 22.5625 16.558594 C 21.976563 17.144531 21.023438 17.144531 20.441406 16.558594 C 20.027344 16.148438 18.6875 13 16 13 C 14.613281 13 12.953125 13.640625 11 15 C 12.855469 11.878906 15.003906 11 17 11 Z M 20 18.5 C 19.082031 19.40625 17.640625 20 16 20 C 14.359375 20 12.917969 19.40625 12 18.5 C 12.917969 17.59375 14.359375 17 16 17 C 17.640625 17 19.082031 17.59375 20 18.5 Z M 27 43 L 25 45 L 23 43 L 23 38 L 27 38 Z M 34 34 L 27 34 L 25 32 L 23 34 L 16 34 L 11 26 L 17 31 L 21 31 L 24 28 L 26 28 L 29 31 L 33 31 L 39 26 Z M 30 18.5 C 30.917969 17.59375 32.359375 17 34 17 C 35.640625 17 37.082031 17.59375 38 18.5 C 37.082031 19.40625 35.640625 20 34 20 C 32.359375 20 30.917969 19.40625 30 18.5 Z M 34 13 C 31.3125 13 29.972656 16.148438 29.5625 16.5625 C 28.976563 17.148438 28.023438 17.148438 27.441406 16.5625 C 26.855469 15.976563 26.855469 15.023438 27.441406 14.441406 C 27.804688 14.074219 29.5625 11 33 11 C 34.996094 11 37.144531 11.878906 39 15 C 37.046875 13.640625 35.386719 13 34 13 Z" fill="#94FEBF"/></svg>
