<svg xmlns="http://www.w3.org/2000/svg" width="18" height="17"><path fill="#94FEBF" fill-rule="evenodd" d="M8.999 0C4.03 0 0 3.902 0 8.716c0 3.85 2.578 7.116 6.156 8.269.45.081.614-.188.614-.42 0-.207-.008-.755-.012-1.482-2.503.526-3.032-1.169-3.032-1.169-.408-1.007-.999-1.274-.999-1.274-.818-.541.061-.53.061-.53.903.062 1.378.898 1.378.898.803 1.332 2.107.948 2.62.724.081-.563.314-.947.572-1.165-1.999-.22-4.1-.968-4.1-4.307 0-.952.351-1.73.927-2.34-.093-.22-.402-1.106.088-2.305 0 0 .756-.235 2.475.893a8.827 8.827 0 0 1 4.507.001c1.717-1.128 2.472-.893 2.472-.893.491 1.2.182 2.085.09 2.305.577.61.925 1.388.925 2.34 0 3.348-2.104 4.084-4.108 4.3.322.269.61.801.61 1.614 0 1.165-.011 2.105-.011 2.39 0 .234.162.505.619.419C15.424 15.83 18 12.565 18 8.716 18 3.902 13.97 0 8.999 0z"/></svg>
