<svg xmlns="http://www.w3.org/2000/svg" width="18" height="15">
  <path fill="#138198" fill-rule="evenodd"
        d="M18 1.776a7.518 7.518 0 0 1-2.126.597A3.743 3.743 0 0 0 17.497.282a7.269 7.269 0 0 1-2.34.916A3.653 3.653 0 0 0 12.462 0c-2.043 0-3.688 1.701-3.688 3.786 0 .3.025.588.085.863C5.791 4.495 3.077 2.987 1.253.69a3.89 3.89 0 0 0-.505 1.913c0 1.311.658 2.473 1.639 3.145A3.569 3.569 0 0 1 .72 5.282v.042c0 1.839 1.279 3.367 2.957 3.719a3.611 3.611 0 0 1-.968.124c-.236 0-.475-.014-.699-.064.479 1.499 1.835 2.6 3.448 2.636a7.29 7.29 0 0 1-4.575 1.614c-.302 0-.593-.013-.883-.051A10.203 10.203 0 0 0 5.661 15c6.79 0 10.503-5.769 10.503-10.77 0-.167-.006-.329-.014-.489A7.466 7.466 0 0 0 18 1.776z"/>
</svg>
